<?xml version="1.0" encoding="utf-8"?>
<!-- Generator: Adobe Illustrator 25.0.1, SVG Export Plug-In . SVG Version: 6.00 Build 0)  -->
<svg version="1.1" id="Layer_1" xmlns="http://www.w3.org/2000/svg" xmlns:xlink="http://www.w3.org/1999/xlink" x="0px" y="0px"
	 viewBox="0 0 137.42 46.77" style="enable-background:new 0 0 137.42 46.77;" xml:space="preserve">
<style type="text/css">
	.st0{fill:#6CD04D;}
	.st1{fill:#3A0092;}
	.st2{fill:#FFFFFF;}
</style>
<g>
	<path class="st1" d="M13.69,34.2c-2.1-1.12-3.75-2.67-4.95-4.66c-1.2-1.99-1.8-4.25-1.8-6.77s0.6-4.78,1.8-6.77
		c1.2-1.99,2.85-3.55,4.95-4.66c2.1-1.12,4.47-1.67,7.11-1.67c2.3,0,4.38,0.41,6.23,1.22c1.85,0.82,3.38,1.99,4.61,3.53l-4.54,4.1
		c-1.63-1.97-3.61-2.95-5.94-2.95c-1.37,0-2.59,0.3-3.65,0.9c-1.07,0.6-1.9,1.45-2.48,2.54c-0.59,1.09-0.88,2.35-0.88,3.76
		c0,1.42,0.29,2.67,0.88,3.76c0.59,1.09,1.42,1.94,2.48,2.54c1.07,0.6,2.29,0.9,3.65,0.9c2.33,0,4.31-0.98,5.94-2.95l4.54,4.1
		c-1.22,1.54-2.76,2.71-4.61,3.53c-1.85,0.82-3.92,1.22-6.23,1.22C18.16,35.88,15.79,35.32,13.69,34.2z"/>
	<path class="st1" d="M47.94,34.58c-0.58,0.36-1.28,0.64-2.11,0.83c-0.83,0.19-1.71,0.29-2.65,0.29c-2.54,0-4.5-0.62-5.87-1.87
		s-2.05-3.11-2.05-5.58v-6.55h-2.84v-5.11h2.84v-5.08h6.84v5.08h4.46v5.11h-4.46v6.48c0,0.7,0.19,1.24,0.56,1.64
		c0.37,0.4,0.87,0.59,1.49,0.59c0.79,0,1.49-0.2,2.09-0.61L47.94,34.58z"/>
	<path class="st1" d="M59.8,16.2c1.12-0.44,2.39-0.67,3.83-0.67v6.16c-0.62-0.07-1.14-0.11-1.55-0.11c-1.46,0-2.61,0.4-3.44,1.19
		c-0.83,0.79-1.24,2-1.24,3.64v8.96h-6.84V15.86h6.52v2.34C57.78,17.31,58.69,16.65,59.8,16.2z"/>
	<path class="st1" d="M66.44,8.66h6.84v26.71h-6.84V8.66z"/>
</g>
<g>
	<path class="st0" d="M85.47,28.59c0.94,1.16,2.2,1.75,3.78,1.75s2.84-0.58,3.76-1.75c0.92-1.16,1.39-2.75,1.39-4.77V8.85h5.62V24
		c0,3.65-1.01,6.45-3.02,8.41s-4.6,2.93-7.74,2.93c-3.14,0-5.73-0.98-7.76-2.95c-2.03-1.97-3.04-4.76-3.04-8.39V8.85h5.62v14.97
		C84.07,25.83,84.53,27.42,85.47,28.59z"/>
	<path class="st0" d="M116.57,15.39c2.26,0,4.27,0.94,6.03,2.83c1.76,1.88,2.65,4.25,2.65,7.11c0,2.86-0.88,5.24-2.65,7.16
		c-1.76,1.92-3.83,2.88-6.19,2.88c-2.36,0-4.27-0.95-5.71-2.84v9.54h-5.4V15.72h5.4v2.16C112.36,16.22,114.32,15.39,116.57,15.39z
		 M110.63,25.42c0,1.57,0.44,2.86,1.31,3.85c0.88,1,1.94,1.49,3.19,1.49s2.34-0.5,3.28-1.49c0.94-1,1.4-2.27,1.4-3.83
		c0-1.56-0.46-2.87-1.37-3.92s-2-1.58-3.28-1.58c-1.27,0-2.35,0.52-3.22,1.57C111.07,22.54,110.63,23.85,110.63,25.42z"/>
</g>
<g>
	<path class="st1" d="M130.79,8.9c0.54,0.31,0.97,0.74,1.28,1.28c0.31,0.54,0.46,1.14,0.46,1.8s-0.16,1.27-0.47,1.81
		c-0.32,0.55-0.75,0.98-1.29,1.3c-0.55,0.32-1.15,0.48-1.81,0.48c-0.66,0-1.26-0.16-1.8-0.48c-0.54-0.32-0.97-0.75-1.28-1.29
		c-0.31-0.55-0.47-1.15-0.47-1.8c0-0.65,0.16-1.25,0.47-1.8c0.31-0.55,0.74-0.98,1.29-1.29c0.55-0.32,1.15-0.48,1.82-0.48
		C129.65,8.43,130.25,8.59,130.79,8.9z M131.54,13.03c0.12-0.33,0.18-0.68,0.18-1.05c0-0.53-0.12-1-0.35-1.42
		c-0.23-0.42-0.56-0.75-0.98-1c-0.42-0.24-0.89-0.36-1.42-0.36c-0.53,0-1,0.12-1.42,0.37c-0.42,0.25-0.75,0.58-0.99,1.01
		c-0.24,0.43-0.35,0.9-0.35,1.42c0,0.52,0.12,0.99,0.35,1.42c0.24,0.43,0.56,0.76,0.98,1.01s0.89,0.37,1.41,0.37
		c0.4,0,0.78-0.08,1.13-0.23c0.35-0.15,0.65-0.37,0.89-0.64h-1.22l-0.68-1.05h-0.47v1.05h-1.24v-3.86h1.76
		c0.54,0,0.96,0.13,1.27,0.38c0.31,0.25,0.46,0.6,0.46,1.03c0,0.55-0.22,0.95-0.67,1.18l0.82,1.25
		C131.24,13.66,131.41,13.36,131.54,13.03z M129.04,11.99c0.18,0,0.32-0.05,0.43-0.14c0.1-0.09,0.16-0.22,0.16-0.38
		c0-0.16-0.05-0.29-0.15-0.38c-0.1-0.09-0.25-0.14-0.43-0.14h-0.43v1.03H129.04z"/>
</g>
</svg>
